<svg xmlns="http://www.w3.org/2000/svg" viewBox="0 0 400 500" width="400" height="500">
    <rect width="400" height="500" fill="#051528" rx="20"/>
    <rect x="155" y="200" width="90" height="120" rx="10" fill="#cc6600"/>
    <path d="M155 210 Q200 205 245 210 L245 220 Q200 215 155 220 Z" fill="#aa5500"/>
    <path d="M155 228 Q200 223 245 228 L245 238 Q200 233 155 238 Z" fill="#aa5500"/>
    <path d="M155 246 Q200 241 245 246 L245 256 Q200 251 155 256 Z" fill="#aa5500"/>
    <path d="M155 264 Q200 259 245 264 L245 274 Q200 269 155 274 Z" fill="#aa5500"/>
    <path d="M155 282 Q200 277 245 282 L245 292 Q200 287 155 292 Z" fill="#aa5500"/>
    <path d="M155 200 L200 182 L245 200" fill="none" stroke="#1a6a4a" stroke-width="8"/>
    <ellipse cx="200" cy="162" rx="40" ry="44" fill="#d4a060"/>
    <path d="M162 148 Q158 110 170 92 Q178 132 181 145" fill="#cc9900"/>
    <path d="M238 148 Q242 110 230 92 Q222 132 219 145" fill="#cc9900"/>
    <ellipse cx="200" cy="122" rx="37" ry="16" fill="#cc9900"/>
    <ellipse cx="186" cy="160" rx="9" ry="8" fill="#fff"/>
    <ellipse cx="214" cy="160" rx="9" ry="8" fill="#fff"/>
    <ellipse cx="186" cy="161" rx="5" ry="5" fill="#006688"/>
    <ellipse cx="214" cy="161" rx="5" ry="5" fill="#006688"/>
    <ellipse cx="186" cy="161" rx="3" ry="3" fill="#111"/>
    <ellipse cx="214" cy="161" rx="3" ry="3" fill="#111"/>
    <path d="M175 178 Q200 200 225 178 Q215 195 200 198 Q185 195 175 178" fill="#aa7700"/>
    <rect x="255" y="160" width="8" height="160" rx="4" fill="#b8860b"/>
    <line x1="259" y1="160" x2="247" y2="135" stroke="#b8860b" stroke-width="5"/>
    <line x1="259" y1="160" x2="259" y2="135" stroke="#b8860b" stroke-width="5"/>
    <line x1="259" y1="160" x2="271" y2="135" stroke="#b8860b" stroke-width="5"/>
    <rect x="158" y="318" width="36" height="75" rx="8" fill="#1a6a4a"/>
    <rect x="206" y="318" width="36" height="75" rx="8" fill="#1a6a4a"/>
    <rect x="156" y="376" width="40" height="24" rx="6" fill="#0d4433"/>
    <rect x="204" y="376" width="40" height="24" rx="6" fill="#0d4433"/>
</svg>
