<svg xmlns="http://www.w3.org/2000/svg" viewBox="0 0 400 500" width="400" height="500">
    <rect width="400" height="500" fill="#1a0a1a" rx="20"/>
    <path d="M155 200 L200 200 L200 320 L155 320 Z" fill="#cc1111"/>
    <path d="M200 200 L245 200 L245 320 L200 320 Z" fill="#111111"/>
    <rect x="155" y="200" width="90" height="120" rx="10" fill="none" stroke="#333" stroke-width="1"/>
    <polygon points="200,215 215,232 200,248 185,232" fill="#cc1111" opacity="0.7"/>
    <ellipse cx="200" cy="160" rx="40" ry="44" fill="#f0f0d8"/>
    <ellipse cx="166" cy="125" rx="16" ry="28" fill="#cc1111" transform="rotate(-15, 166, 125)"/>
    <ellipse cx="234" cy="125" rx="16" ry="28" fill="#111" transform="rotate(15, 234, 125)"/>
    <circle cx="167" cy="145" r="6" fill="#cc1111"/>
    <circle cx="233" cy="145" r="6" fill="#111"/>
    <ellipse cx="185" cy="157" rx="10" ry="8" fill="#fff"/>
    <ellipse cx="215" cy="157" rx="10" ry="8" fill="#fff"/>
    <ellipse cx="185" cy="158" rx="7" ry="7" fill="#111" opacity="0.9"/>
    <ellipse cx="215" cy="158" rx="7" ry="7" fill="#111" opacity="0.9"/>
    <ellipse cx="185" cy="158" rx="4" ry="4" fill="#3333cc"/>
    <ellipse cx="215" cy="158" rx="4" ry="4" fill="#3333cc"/>
    <ellipse cx="185" cy="158" rx="2" ry="2" fill="#111"/>
    <ellipse cx="215" cy="158" rx="2" ry="2" fill="#111"/>
    <ellipse cx="185" cy="157" rx="10" ry="8" fill="none" stroke="#cc1111" stroke-width="2"/>
    <path d="M178 180 Q200 200 222 180 Q210 195 200 197 Q190 195 178 180" fill="#cc1111"/>
    <rect x="250" y="145" width="10" height="150" rx="4" fill="#8B4513"/>
    <rect x="238" y="130" width="34" height="50" rx="6" fill="#111"/>
    <rect x="240" y="132" width="30" height="20" rx="4" fill="#cc1111"/>
    <rect x="240" y="158" width="30" height="20" rx="4" fill="#cc1111"/>
    <rect x="155" y="306" width="90" height="13" rx="4" fill="#cc1111"/>
    <rect x="158" y="317" width="36" height="78" rx="8" fill="#111"/>
    <rect x="206" y="317" width="36" height="78" rx="8" fill="#cc1111"/>
    <rect x="156" y="377" width="40" height="22" rx="6" fill="#333"/>
    <rect x="204" y="377" width="40" height="22" rx="6" fill="#cc1111"/>
</svg>
