<svg xmlns="http://www.w3.org/2000/svg" viewBox="0 0 400 500" width="400" height="500">
    <rect width="400" height="500" fill="#0a1a0a" rx="20"/>
    <rect x="148" y="198" width="104" height="125" rx="12" fill="#2a5a2a"/>
    <path d="M148 202 L200 182 L252 202 L252 258 L200 270 L148 258 Z" fill="#1a8a1a"/>
    <text x="200" y="248" text-anchor="middle" font-family="Arial Black, sans-serif" font-size="30" fill="#00ee44" font-weight="bold">L</text>
    <ellipse cx="200" cy="160" rx="42" ry="46" fill="#d4956a"/>
    <ellipse cx="188" cy="130" rx="12" ry="6" fill="#e8aa80" opacity="0.5"/>
    <ellipse cx="185" cy="157" rx="10" ry="8" fill="#fff"/>
    <ellipse cx="215" cy="157" rx="10" ry="8" fill="#fff"/>
    <ellipse cx="185" cy="158" rx="6" ry="6" fill="#3a3a00"/>
    <ellipse cx="215" cy="158" rx="6" ry="6" fill="#3a3a00"/>
    <ellipse cx="185" cy="158" rx="3" ry="3" fill="#111"/>
    <ellipse cx="215" cy="158" rx="3" ry="3" fill="#111"/>
    <path d="M186 180 Q200 185 210 178" fill="none" stroke="#993300" stroke-width="3" stroke-linecap="round"/>
    <rect x="148" y="308" width="104" height="14" rx="4" fill="#00ee44"/>
    <rect x="152" y="320" width="42" height="76" rx="10" fill="#2a5a2a"/>
    <rect x="206" y="320" width="42" height="76" rx="10" fill="#2a5a2a"/>
    <rect x="150" y="378" width="46" height="22" rx="6" fill="#1a4a1a"/>
    <rect x="204" y="378" width="46" height="22" rx="6" fill="#1a4a1a"/>
</svg>
