<svg xmlns="http://www.w3.org/2000/svg" viewBox="0 0 400 500" width="400" height="500">
    <rect width="400" height="500" fill="#1a0a0a" rx="20"/>
    <rect x="155" y="200" width="90" height="120" rx="10" fill="#cc1111"/>
    <path d="M155 200 L155 320 L175 320 L175 200 Z" fill="#1133cc"/>
    <path d="M245 200 L245 320 L225 320 L225 200 Z" fill="#1133cc"/>
    <line x1="200" y1="200" x2="155" y2="270" stroke="#880000" stroke-width="1.5"/>
    <line x1="200" y1="200" x2="245" y2="270" stroke="#880000" stroke-width="1.5"/>
    <line x1="200" y1="200" x2="200" y2="320" stroke="#880000" stroke-width="1.5"/>
    <line x1="155" y1="240" x2="245" y2="240" stroke="#880000" stroke-width="1.5"/>
    <line x1="155" y1="275" x2="245" y2="275" stroke="#880000" stroke-width="1.5"/>
    <ellipse cx="200" cy="235" rx="12" ry="8" fill="#111"/>
    <line x1="190" y1="230" x2="165" y2="218" stroke="#111" stroke-width="3"/>
    <line x1="210" y1="230" x2="235" y2="218" stroke="#111" stroke-width="3"/>
    <line x1="190" y1="240" x2="168" y2="252" stroke="#111" stroke-width="3"/>
    <line x1="210" y1="240" x2="232" y2="252" stroke="#111" stroke-width="3"/>
    <ellipse cx="200" cy="162" rx="40" ry="44" fill="#cc1111"/>
    <line x1="200" y1="118" x2="200" y2="205" stroke="#880000" stroke-width="1.5"/>
    <line x1="162" y1="150" x2="238" y2="150" stroke="#880000" stroke-width="1.5"/>
    <line x1="165" y1="135" x2="200" y2="118" stroke="#880000" stroke-width="1.5"/>
    <line x1="235" y1="135" x2="200" y2="118" stroke="#880000" stroke-width="1.5"/>
    <line x1="163" y1="172" x2="200" y2="205" stroke="#880000" stroke-width="1.5"/>
    <line x1="237" y1="172" x2="200" y2="205" stroke="#880000" stroke-width="1.5"/>
    <ellipse cx="185" cy="158" rx="14" ry="12" fill="#fff" transform="rotate(-10,185,158)"/>
    <ellipse cx="215" cy="158" rx="14" ry="12" fill="#fff" transform="rotate(10,215,158)"/>
    <path d="M162 148 Q155 165 162 185 L162 148" fill="#1133cc"/>
    <path d="M238 148 Q245 165 238 185 L238 148" fill="#1133cc"/>
    <rect x="158" y="318" width="36" height="78" rx="8" fill="#1133cc"/>
    <rect x="206" y="318" width="36" height="78" rx="8" fill="#1133cc"/>
    <rect x="156" y="378" width="40" height="22" rx="6" fill="#cc1111"/>
    <rect x="204" y="378" width="40" height="22" rx="6" fill="#cc1111"/>
</svg>
