<svg xmlns="http://www.w3.org/2000/svg" viewBox="0 0 400 500" width="400" height="500">
    <rect width="400" height="500" fill="#0a1628" rx="20"/>
    <path d="M240 175 L340 430 L200 390 L200 220" fill="#cc1111"/>
    <rect x="152" y="200" width="96" height="120" rx="10" fill="#1a3a8f"/>
    <polygon points="200,215 228,228 228,268 200,280 172,268 172,228" fill="#f0c040"/>
    <polygon points="200,225 220,234 220,262 200,272 180,262 180,234" fill="#cc1111"/>
    <text x="200" y="260" text-anchor="middle" font-family="Arial Black, sans-serif" font-size="26" fill="#f0c040" font-weight="bold">S</text>
    <rect x="152" y="305" width="96" height="15" rx="4" fill="#f0c040"/>
    <ellipse cx="200" cy="165" rx="40" ry="44" fill="#f5c890"/>
    <ellipse cx="200" cy="132" rx="38" ry="18" fill="#111"/>
    <path d="M166 148 Q160 130 170 122 Q175 140 178 145" fill="#111"/>
    <path d="M234 148 Q240 130 230 122 Q225 140 222 145" fill="#111"/>
    <path d="M200 138 Q208 128 205 120" fill="none" stroke="#111" stroke-width="4" stroke-linecap="round"/>
    <ellipse cx="186" cy="162" rx="9" ry="8" fill="#fff"/>
    <ellipse cx="214" cy="162" rx="9" ry="8" fill="#fff"/>
    <ellipse cx="186" cy="163" rx="5" ry="5" fill="#3366cc"/>
    <ellipse cx="214" cy="163" rx="5" ry="5" fill="#3366cc"/>
    <ellipse cx="186" cy="163" rx="3" ry="3" fill="#111"/>
    <ellipse cx="214" cy="163" rx="3" ry="3" fill="#111"/>
    <path d="M182 185 Q200 198 218 185 Q210 200 200 202 Q190 200 182 185" fill="#a8814c"/>
    <rect x="155" y="318" width="38" height="78" rx="8" fill="#1a3a8f"/>
    <rect x="207" y="318" width="38" height="78" rx="8" fill="#1a3a8f"/>
    <rect x="153" y="380" width="42" height="22" rx="6" fill="#cc1111"/>
    <rect x="205" y="380" width="42" height="22" rx="6" fill="#cc1111"/>
</svg>
