<svg xmlns="http://www.w3.org/2000/svg" viewBox="0 0 400 500" width="400" height="500">
    <rect width="400" height="500" fill="#0a0a1e" rx="20"/>
    <path d="M240 175 L345 435 L200 395 L200 218" fill="#cc1111"/>
    <rect x="152" y="200" width="96" height="120" rx="12" fill="#aaaacc"/>
    <line x1="200" y1="200" x2="200" y2="320" stroke="#8888aa" stroke-width="3"/>
    <line x1="152" y1="245" x2="248" y2="245" stroke="#8888aa" stroke-width="2"/>
    <circle cx="200" cy="230" r="12" fill="#cccc44"/>
    <ellipse cx="200" cy="163" rx="40" ry="44" fill="#d4a060"/>
    <path d="M162 148 Q155 105 168 88 Q177 132 180 145" fill="#cc9900"/>
    <path d="M238 148 Q245 105 232 88 Q223 132 220 145" fill="#cc9900"/>
    <path d="M165 165 Q160 200 163 215" fill="none" stroke="#cc9900" stroke-width="8"/>
    <path d="M235 165 Q240 200 237 215" fill="none" stroke="#cc9900" stroke-width="8"/>
    <ellipse cx="200" cy="122" rx="37" ry="16" fill="#cc9900"/>
    <path d="M160 155 L132 143 L138 162 L160 162" fill="#aaaacc"/>
    <path d="M240 155 L268 143 L262 162 L240 162" fill="#aaaacc"/>
    <ellipse cx="186" cy="160" rx="9" ry="8" fill="#fff"/>
    <ellipse cx="214" cy="160" rx="9" ry="8" fill="#fff"/>
    <ellipse cx="186" cy="161" rx="5" ry="5" fill="#2244aa"/>
    <ellipse cx="214" cy="161" rx="5" ry="5" fill="#2244aa"/>
    <ellipse cx="186" cy="161" rx="3" ry="3" fill="#111"/>
    <ellipse cx="214" cy="161" rx="3" ry="3" fill="#111"/>
    <path d="M176 180 Q200 200 224 180 Q214 196 200 198 Q186 196 176 180" fill="#aa7700"/>
    <rect x="252" y="270" width="50" height="40" rx="6" fill="#888899"/>
    <rect x="272" y="310" width="10" height="55" rx="4" fill="#6a5a3a"/>
    <line x1="260" y1="268" x2="305" y2="268" stroke="#aaaacc" stroke-width="2"/>
    <rect x="152" y="308" width="96" height="13" rx="4" fill="#cccc44"/>
    <rect x="155" y="319" width="38" height="75" rx="8" fill="#aaaacc"/>
    <rect x="207" y="319" width="38" height="75" rx="8" fill="#aaaacc"/>
    <rect x="153" y="377" width="42" height="23" rx="6" fill="#222244"/>
    <rect x="205" y="377" width="42" height="23" rx="6" fill="#222244"/>
</svg>
