<svg xmlns="http://www.w3.org/2000/svg" viewBox="0 0 400 500" width="400" height="500">
    <rect width="400" height="500" fill="#0a1428" rx="20"/>
    <path d="M165 305 L140 420 L200 400 L260 420 L235 305 Z" fill="#cc1111"/>
    <rect x="155" y="200" width="90" height="108" rx="10" fill="#cc1111"/>
    <path d="M155 205 L200 183 L245 205 L245 245 L200 255 L155 245 Z" fill="#b8860b"/>
    <path d="M178 220 L200 215 L222 220 L215 238 L200 235 L185 238 Z" fill="#cc1111"/>
    <text x="200" y="238" text-anchor="middle" font-family="Arial Black, sans-serif" font-size="14" fill="#fff" font-weight="bold">W</text>
    <ellipse cx="200" cy="162" rx="40" ry="44" fill="#d4956a"/>
    <path d="M162 148 Q158 108 172 88 Q180 132 184 145" fill="#111"/>
    <path d="M238 148 Q242 108 228 88 Q220 132 216 145" fill="#111"/>
    <ellipse cx="200" cy="120" rx="37" ry="18" fill="#111"/>
    <path d="M165 138 L235 138 L230 128 L200 132 L170 128 Z" fill="#b8860b"/>
    <polygon points="200,124 195,132 205,132" fill="#cc1111"/>
    <ellipse cx="186" cy="160" rx="9" ry="8" fill="#fff"/>
    <ellipse cx="214" cy="160" rx="9" ry="8" fill="#fff"/>
    <ellipse cx="186" cy="161" rx="5" ry="5" fill="#3388cc"/>
    <ellipse cx="214" cy="161" rx="5" ry="5" fill="#3388cc"/>
    <ellipse cx="186" cy="161" rx="3" ry="3" fill="#111"/>
    <ellipse cx="214" cy="161" rx="3" ry="3" fill="#111"/>
    <path d="M188 182 Q200 191 212 182" fill="#cc3333" stroke="none"/>
    <path d="M248 260 Q280 240 290 270 Q295 295 270 300 Q255 300 252 285" fill="none" stroke="#b8860b" stroke-width="4"/>
    <rect x="158" y="318" width="36" height="75" rx="8" fill="#1a3a8f"/>
    <rect x="206" y="318" width="36" height="75" rx="8" fill="#1a3a8f"/>
    <rect x="156" y="376" width="40" height="24" rx="6" fill="#4a3000"/>
    <rect x="204" y="376" width="40" height="24" rx="6" fill="#4a3000"/>
</svg>
